<svg xmlns="http://www.w3.org/2000/svg" viewBox="0 0 1200 900" role="img" aria-label="Abstract signal project cover">
  <defs>
    <linearGradient id="bg" x1="0" y1="0" x2="1" y2="1">
      <stop stop-color="#e8efe8"/>
      <stop offset="0.55" stop-color="#6f8e83"/>
      <stop offset="1" stop-color="#17231f"/>
    </linearGradient>
    <radialGradient id="light" cx="30%" cy="22%" r="58%">
      <stop stop-color="#fff2c7"/>
      <stop offset="0.55" stop-color="#c78f57" stop-opacity="0.38"/>
      <stop offset="1" stop-color="#c78f57" stop-opacity="0"/>
    </radialGradient>
    <filter id="blur"><feGaussianBlur stdDeviation="22"/></filter>
  </defs>
  <rect width="1200" height="900" fill="url(#bg)"/>
  <rect width="1200" height="900" fill="url(#light)"/>
  <g filter="url(#blur)" opacity="0.72">
    <circle cx="930" cy="210" r="150" fill="#dbe9df"/>
    <circle cx="230" cy="760" r="190" fill="#244b45"/>
  </g>
  <g fill="none" stroke="#f9f5ea" stroke-opacity="0.68">
    <path d="M162 585c124-126 233-186 327-181 94 6 166 78 217 217s122 209 212 211c89 2 160-50 212-157" stroke-width="10"/>
    <path d="M150 442c99-63 189-86 269-69 81 18 151 78 212 182 60 103 132 157 216 162 84 4 154-25 210-88" stroke-width="3"/>
    <path d="M176 704c130-87 236-113 318-79 81 34 144 96 188 186" stroke-width="2"/>
  </g>
</svg>
